<?xml version="1.0" encoding="UTF-8" standalone="no"?>
<!DOCTYPE svg PUBLIC "-//W3C//DTD SVG 1.1//EN" "http://www.w3.org/Graphics/SVG/1.1/DTD/svg11.dtd">
<!-- Generiert durch Microsoft Visio, SVG Export ThermalHydraulicCircuit_Model.svg Zeichenblatt-1 -->
<svg xmlns="http://www.w3.org/2000/svg" xmlns:xlink="http://www.w3.org/1999/xlink" xmlns:ev="http://www.w3.org/2001/xml-events"
		xmlns:v="http://schemas.microsoft.com/visio/2003/SVGExtensions/" width="17.1744in" height="4.29205in"
		viewBox="0 0 1236.56 309.028" xml:space="preserve" color-interpolation-filters="sRGB" class="st13">
	<v:documentProperties v:langID="1031" v:metric="true" v:viewMarkup="false"/>

	<style type="text/css">
	<![CDATA[
		.st1 {fill:none;stroke:none;stroke-width:0.25}
		.st2 {fill:#000000;font-family:Calibri;font-size:1.00001em}
		.st3 {font-size:1em}
		.st4 {marker-end:url(#mrkr4-39);stroke:#000000;stroke-linecap:round;stroke-linejoin:round;stroke-width:0.5}
		.st5 {fill:#000000;fill-opacity:1;stroke:#000000;stroke-opacity:1;stroke-width:0.25773195876289}
		.st6 {fill:#ffffff;stroke:#000000;stroke-width:0.75}
		.st7 {fill:#000000;font-family:Calibri;font-size:0.833336em}
		.st8 {marker-start:url(#mrkr4-52);stroke:#000000;stroke-linecap:round;stroke-linejoin:round;stroke-width:0.5}
		.st9 {fill:none;stroke:none;stroke-width:0.75}
		.st10 {fill:#000000;font-family:Calibri;font-size:0.666664em}
		.st11 {fill:none;stroke:#000000;stroke-dasharray:3,3;stroke-width:1}
		.st12 {fill:#ffffff;stroke:#000000;stroke-width:1}
		.st13 {fill:none;fill-rule:evenodd;font-size:12px;overflow:visible;stroke-linecap:square;stroke-miterlimit:3}
	]]>
	</style>

	<defs id="Markers">
		<g id="lend4">
			<path d="M 2 1 L 0 0 L 2 -1 L 2 1 " style="stroke:none"/>
		</g>
		<marker id="mrkr4-39" class="st5" v:arrowType="4" v:arrowSize="0" v:setback="7.76" refX="-7.76" orient="auto"
				markerUnits="strokeWidth" overflow="visible">
			<use xlink:href="#lend4" transform="scale(-3.88,-3.88) "/>
		</marker>
		<marker id="mrkr4-52" class="st5" v:arrowType="4" v:arrowSize="0" v:setback="7.04" refX="7.04" orient="auto"
				markerUnits="strokeWidth" overflow="visible">
			<use xlink:href="#lend4" transform="scale(3.88) "/>
		</marker>
	</defs>
	<g v:mID="0" v:index="1" v:groupContext="foregroundPage">
		<title>Zeichenblatt-1</title>
		<v:pageProperties v:drawingScale="0.0393701" v:pageScale="0.0393701" v:drawingUnits="24" v:shadowOffsetX="8.50394"
				v:shadowOffsetY="-8.50394"/>
		<v:layer v:name="Verbinder" v:index="0"/>
		<g id="group3403-1" transform="translate(0.25,-1)" v:mID="3403" v:groupContext="group">
			<title>Tabelle.3403</title>
			<g id="shape3225-2" v:mID="3225" v:groupContext="shape" transform="translate(0,-38.4864)">
				<title>Tabelle.3225</title>
				<desc>C1: Compressor C2: Condenser C3: Receiver C4: Expansion Valve...</desc>
				<v:textBlock v:margins="rect(4,4,4,4)" v:tabSpace="42.5197"/>
				<v:textRect cx="85.3937" cy="202.728" width="170.79" height="212.598"/>
				<rect x="0" y="96.4293" width="170.787" height="212.598" class="st1"/>
				<text x="4" y="105.53" class="st2" v:langID="1031"><v:paragraph/><v:tabList/>C1:<v:tabChar/><tspan dx="2.236em"
							class="st3">Compressor<v:newlineChar/></tspan><tspan x="4" dy="1.2em" class="st3">C2:<v:tabChar/></tspan><tspan
							dx="2.236em" class="st3">Condenser<v:newlineChar/></tspan><tspan x="4" dy="1.2em" class="st3">C3:<v:tabChar/></tspan><tspan
							dx="2.236em" class="st3">Receiver<v:newlineChar/></tspan><tspan x="4" dy="1.2em" class="st3">C4:<v:tabChar/></tspan><tspan
							dx="2.236em" class="st3">Expansion Valve<v:newlineChar/></tspan><tspan x="4" dy="1.2em" class="st3">C5:<v:tabChar/></tspan><tspan
							dx="2.236em" class="st3">Evaporator<v:newlineChar/></tspan><tspan x="4" dy="1.2em" class="st3">C6:<v:tabChar/></tspan><tspan
							dx="2.236em" class="st3">Pump 1<v:newlineChar/></tspan><tspan x="4" dy="1.2em" class="st3">C7:<v:tabChar/></tspan><tspan
							dx="2.236em" class="st3">Coolong Coil<v:newlineChar/></tspan><tspan x="4" dy="1.2em" class="st3">C8:<v:tabChar/></tspan><tspan
							dx="2.236em" class="st3">Mixing Valve 1<v:newlineChar/></tspan><tspan x="4" dy="1.2em" class="st3">C9:<v:tabChar/></tspan><tspan
							dx="2.236em" class="st3">Pump 2<v:newlineChar/></tspan><tspan x="4" dy="1.2em" class="st3">C10:<v:tabChar/></tspan><tspan
							dx="1.729em" class="st3">Heating Coil<v:newlineChar/></tspan><tspan x="4" dy="1.2em" class="st3">C11:<v:tabChar/></tspan><tspan
							dx="1.729em" class="st3">Mixing Valve 2<v:newlineChar/></tspan><tspan x="4" dy="1.2em" class="st3">C12:<v:tabChar/></tspan><tspan
							dx="1.729em" class="st3">Source 1<v:newlineChar/></tspan><tspan x="4" dy="1.2em" class="st3">C13:<v:tabChar/></tspan><tspan
							dx="1.729em" class="st3">Sink 1<v:newlineChar/></tspan><tspan x="4" dy="1.2em" class="st3">C14:<v:tabChar/></tspan><tspan
							dx="1.729em" class="st3">Source 2<v:newlineChar/></tspan><tspan x="4" dy="1.2em" class="st3">C15:<v:tabChar/></tspan><tspan
							dx="1.729em" class="st3">Sink 2</tspan><v:tabChar/><v:tabChar/></text>			</g>
			<g id="shape3239-34" v:mID="3239" v:groupContext="shape" v:layerMember="0" transform="translate(436.967,-151.818)">
				<title>Dynamischer Verbinder.2817</title>
				<path d="M7.09 309.03 L7.09 233.08" class="st4"/>
			</g>
			<g id="shape3240-40" v:mID="3240" v:groupContext="shape" transform="translate(701.728,-122.737)">
				<title>Rechteck.2818</title>
				<desc>C2</desc>
				<v:userDefs>
					<v:ud v:nameU="visVersion" v:val="VT0(15):26"/>
				</v:userDefs>
				<v:textBlock v:margins="rect(4,4,4,4)" v:tabSpace="42.5197"/>
				<v:textRect cx="22.2016" cy="295.204" width="44.41" height="27.6473"/>
				<rect x="0" y="281.38" width="44.4032" height="27.6473" class="st6"/>
				<text x="17" y="298.2" class="st7" v:langID="2055"><v:paragraph v:horizAlign="1"/><v:tabList/>C2</text>			</g>
			<g id="shape3241-43" v:mID="3241" v:groupContext="shape" transform="translate(438.607,-124.171)">
				<title>Rechteck.3241</title>
				<desc>C5</desc>
				<v:userDefs>
					<v:ud v:nameU="visVersion" v:val="VT0(15):26"/>
				</v:userDefs>
				<v:textBlock v:margins="rect(4,4,4,4)" v:tabSpace="42.5197"/>
				<v:textRect cx="22.2016" cy="295.204" width="44.41" height="27.6473"/>
				<rect x="0" y="281.38" width="44.4032" height="27.6473" class="st6"/>
				<text x="17" y="298.2" class="st7" v:langID="2055"><v:paragraph v:horizAlign="1"/><v:tabList/>C<tspan class="st3"
							v:langID="1031">5</tspan></text>			</g>
			<g id="shape3242-47" v:mID="3242" v:groupContext="shape" v:layerMember="0" transform="translate(482.465,-245.151)">
				<title>Dynamischer Verbinder.2821</title>
				<path d="M3.52 316.08 L3.88 316.08 L24.9 316.16" class="st8"/>
			</g>
			<g id="group3243-53" transform="translate(729.794,-229.556)" v:mID="3243" v:groupContext="group">
				<title>Tabelle.3243</title>
				<g id="shape3244-54" v:mID="3244" v:groupContext="shape" transform="translate(3.35118,-2.09448)">
					<title>Kreis.198</title>
					<v:userDefs>
						<v:ud v:nameU="visVersion" v:val="VT0(15):26"/>
					</v:userDefs>
					<path d="M0 302.74 A6.28347 6.28347 0 0 1 12.57 302.74 A6.28347 6.28347 0 0 1 -0 302.74 Z" class="st6"/>
				</g>
				<g id="shape3245-56" v:mID="3245" v:groupContext="shape">
					<title>Tabelle.3245</title>
					<desc>11</desc>
					<v:textBlock v:margins="rect(4,4,4,4)" v:tabSpace="42.5197"/>
					<v:textRect cx="9.63465" cy="300.65" width="19.27" height="16.7559"/>
					<rect x="0" y="292.272" width="19.2693" height="16.7559" class="st9"/>
					<text x="5.58" y="303.05" class="st10" v:langID="1031"><v:paragraph v:horizAlign="1"/><v:tabList/>11</text>				</g>
			</g>
			<g id="group3246-59" transform="translate(697.957,-230.394)" v:mID="3246" v:groupContext="group">
				<title>Tabelle.3246</title>
				<g id="shape3247-60" v:mID="3247" v:groupContext="shape" transform="translate(3.35118,-2.09448)">
					<title>Kreis.200</title>
					<v:userDefs>
						<v:ud v:nameU="visVersion" v:val="VT0(15):26"/>
					</v:userDefs>
					<path d="M0 302.74 A6.28347 6.28347 0 0 1 12.57 302.74 A6.28347 6.28347 0 0 1 -0 302.74 Z" class="st6"/>
				</g>
				<g id="shape3248-62" v:mID="3248" v:groupContext="shape">
					<title>Tabelle.3248</title>
					<desc>3</desc>
					<v:textBlock v:margins="rect(4,4,4,4)" v:tabSpace="42.5197"/>
					<v:textRect cx="9.63465" cy="300.65" width="19.27" height="16.7559"/>
					<rect x="0" y="292.272" width="19.2693" height="16.7559" class="st9"/>
					<text x="7.61" y="303.05" class="st10" v:langID="2055"><v:paragraph v:horizAlign="1"/><v:tabList/>3</text>				</g>
			</g>
			<g id="group3249-65" transform="translate(698.376,-28.485)" v:mID="3249" v:groupContext="group">
				<title>Tabelle.3249</title>
				<g id="shape3250-66" v:mID="3250" v:groupContext="shape" transform="translate(3.35118,-2.09448)">
					<title>Kreis.214</title>
					<v:userDefs>
						<v:ud v:nameU="visVersion" v:val="VT0(15):26"/>
					</v:userDefs>
					<path d="M0 302.74 A6.28347 6.28347 0 1 1 12.57 302.74 A6.28347 6.28347 0 1 1 0 302.74 Z" class="st6"/>
				</g>
				<g id="shape3251-68" v:mID="3251" v:groupContext="shape">
					<title>Tabelle.3251</title>
					<desc>2</desc>
					<v:textBlock v:margins="rect(4,4,4,4)" v:tabSpace="42.5197"/>
					<v:textRect cx="9.63465" cy="300.65" width="19.27" height="16.7559"/>
					<rect x="0" y="292.272" width="19.2693" height="16.7559" class="st9"/>
					<text x="7.61" y="303.05" class="st10" v:langID="2055"><v:paragraph v:horizAlign="1"/><v:tabList/>2</text>				</g>
			</g>
			<g id="group3252-71" transform="translate(435.256,-27.1236)" v:mID="3252" v:groupContext="group">
				<title>Tabelle.3252</title>
				<g id="shape3253-72" v:mID="3253" v:groupContext="shape" transform="translate(3.35118,-2.19923)">
					<title>Kreis.222</title>
					<v:userDefs>
						<v:ud v:nameU="visVersion" v:val="VT0(15):26"/>
					</v:userDefs>
					<path d="M0 302.74 A6.28347 6.28347 0 1 1 12.57 302.74 A6.28347 6.28347 0 1 1 0 302.74 Z" class="st6"/>
				</g>
				<g id="shape3254-74" v:mID="3254" v:groupContext="shape">
					<title>Tabelle.3254</title>
					<desc>7</desc>
					<v:textBlock v:margins="rect(4,4,4,4)" v:tabSpace="42.5197"/>
					<v:textRect cx="9.63465" cy="300.65" width="19.27" height="16.7559"/>
					<rect x="0" y="292.272" width="19.2693" height="16.7559" class="st9"/>
					<text x="7.61" y="303.05" class="st10" v:langID="1031"><v:paragraph v:horizAlign="1"/><v:tabList/>7</text>				</g>
			</g>
			<g id="group3255-77" transform="translate(466.547,-229.733)" v:mID="3255" v:groupContext="group">
				<title>Tabelle.3255</title>
				<g id="shape3256-78" v:mID="3256" v:groupContext="shape" transform="translate(3.35118,-2.09448)">
					<title>Kreis.218</title>
					<v:userDefs>
						<v:ud v:nameU="visVersion" v:val="VT0(15):26"/>
					</v:userDefs>
					<path d="M0 302.74 A6.28347 6.28347 0 0 1 12.57 302.74 A6.28347 6.28347 0 0 1 0 302.74 Z" class="st6"/>
				</g>
				<g id="shape3257-80" v:mID="3257" v:groupContext="shape">
					<title>Tabelle.3257</title>
					<desc>5</desc>
					<v:textBlock v:margins="rect(4,4,4,4)" v:tabSpace="42.5197"/>
					<v:textRect cx="9.63465" cy="300.65" width="19.27" height="16.7559"/>
					<rect x="0" y="292.272" width="19.2693" height="16.7559" class="st9"/>
					<text x="7.61" y="303.05" class="st10" v:langID="1031"><v:paragraph v:horizAlign="1"/><v:tabList/>5</text>				</g>
			</g>
			<g id="shape3258-83" v:mID="3258" v:groupContext="shape" v:layerMember="0" transform="translate(469.359,-124.171)">
				<title>Dynamischer Verbinder.2837</title>
				<path d="M7.01 309.03 L7.15 387.53" class="st4"/>
			</g>
			<g id="shape3259-88" v:mID="3259" v:groupContext="shape" v:layerMember="0" transform="translate(437.84,-41.8898)">
				<title>Dynamischer Verbinder.2838</title>
				<path d="M7.06 309.03 L7.11 230.63" class="st4"/>
			</g>
			<g id="group3260-93" transform="translate(466.883,-27.1236)" v:mID="3260" v:groupContext="group">
				<title>Tabelle.3260</title>
				<g id="shape3261-94" v:mID="3261" v:groupContext="shape" transform="translate(3.35118,-2.09448)">
					<title>Kreis.216</title>
					<v:userDefs>
						<v:ud v:nameU="visVersion" v:val="VT0(15):26"/>
					</v:userDefs>
					<path d="M0 302.74 A6.28347 6.28347 0 1 1 12.57 302.74 A6.28347 6.28347 0 1 1 0 302.74 Z" class="st6"/>
				</g>
				<g id="shape3262-96" v:mID="3262" v:groupContext="shape">
					<title>Tabelle.3262</title>
					<desc>1</desc>
					<v:textBlock v:margins="rect(4,4,4,4)" v:tabSpace="42.5197"/>
					<v:textRect cx="9.63465" cy="300.65" width="19.27" height="16.7559"/>
					<rect x="0" y="292.272" width="19.2693" height="16.7559" class="st9"/>
					<text x="7.61" y="303.05" class="st10" v:langID="1031"><v:paragraph v:horizAlign="1"/><v:tabList/>1</text>				</g>
			</g>
			<g id="shape3263-99" v:mID="3263" v:groupContext="shape" v:layerMember="0" transform="translate(469.149,-231.828)">
				<title>Dynamischer Verbinder.2842</title>
				<path d="M7.03 309.03 L7.14 385.16" class="st4"/>
			</g>
			<g id="shape3264-104" v:mID="3264" v:groupContext="shape" v:layerMember="0" transform="translate(700.924,-122.737)">
				<title>Dynamischer Verbinder.2843</title>
				<path d="M7.09 312.55 L7.09 312.91 L7.09 388.62" class="st8"/>
			</g>
			<g id="shape3265-109" v:mID="3265" v:groupContext="shape" v:layerMember="0" transform="translate(732.446,-122.737)">
				<title>Dynamischer Verbinder.2844</title>
				<path d="M6.98 309.03 L7.18 384.74" class="st4"/>
			</g>
			<g id="shape3266-114" v:mID="3266" v:groupContext="shape" v:layerMember="0" transform="translate(746.515,-231.65)">
				<title>Dynamischer Verbinder.2845</title>
				<path d="M-7.09 309.03 L-7.09 386.41" class="st4"/>
			</g>
			<g id="shape3267-119" v:mID="3267" v:groupContext="shape" v:layerMember="0" transform="translate(714.888,-150.384)">
				<title>Dynamischer Verbinder.2846</title>
				<path d="M-6.88 309.03 L-7.28 230.8" class="st4"/>
			</g>
			<g id="group3268-124" transform="translate(730.003,-28.485)" v:mID="3268" v:groupContext="group">
				<title>Tabelle.3268</title>
				<g id="shape3269-125" v:mID="3269" v:groupContext="shape" transform="translate(3.35118,-2.09448)">
					<title>Kreis.198</title>
					<v:userDefs>
						<v:ud v:nameU="visVersion" v:val="VT0(15):26"/>
					</v:userDefs>
					<path d="M0 302.74 A6.28347 6.28347 0 0 1 12.57 302.74 A6.28347 6.28347 0 0 1 -0 302.74 Z" class="st6"/>
				</g>
				<g id="shape3270-127" v:mID="3270" v:groupContext="shape">
					<title>Tabelle.3270</title>
					<desc>12</desc>
					<v:textBlock v:margins="rect(4,4,4,4)" v:tabSpace="42.5197"/>
					<v:textRect cx="9.63465" cy="300.65" width="19.27" height="16.7559"/>
					<rect x="0" y="292.272" width="19.2693" height="16.7559" class="st9"/>
					<text x="5.58" y="303.05" class="st10" v:langID="1031"><v:paragraph v:horizAlign="1"/><v:tabList/>12</text>				</g>
			</g>
			<g id="group3271-130" transform="translate(434.418,-229.556)" v:mID="3271" v:groupContext="group">
				<title>Tabelle.3271</title>
				<g id="shape3272-131" v:mID="3272" v:groupContext="shape" transform="translate(3.35118,-2.09448)">
					<title>Kreis.224</title>
					<v:userDefs>
						<v:ud v:nameU="visVersion" v:val="VT0(15):26"/>
					</v:userDefs>
					<path d="M0 302.74 A6.28347 6.28347 0 0 1 12.57 302.74 A6.28347 6.28347 0 0 1 0 302.74 Z" class="st6"/>
				</g>
				<g id="shape3273-133" v:mID="3273" v:groupContext="shape">
					<title>Tabelle.3273</title>
					<desc>8</desc>
					<v:textBlock v:margins="rect(4,4,4,4)" v:tabSpace="42.5197"/>
					<v:textRect cx="9.63465" cy="300.65" width="19.27" height="16.7559"/>
					<rect x="0" y="292.272" width="19.2693" height="16.7559" class="st9"/>
					<text x="7.61" y="303.05" class="st10" v:langID="1031"><v:paragraph v:horizAlign="1"/><v:tabList/>8</text>				</g>
			</g>
			<g id="group3274-136" transform="translate(568.78,-14.6614)" v:mID="3274" v:groupContext="group">
				<title>Tabelle.3274</title>
				<g id="shape3275-137" v:mID="3275" v:groupContext="shape" transform="translate(44.4032,573.652) rotate(180)">
					<title>Gedrehtes Dreieck</title>
					<v:userDefs>
						<v:ud v:nameU="visVersion" v:val="VT0(15):26"/>
					</v:userDefs>
					<path d="M44.4 264.62 L0 286.83 L44.4 309.03 L44.4 264.62 Z" class="st6"/>
				</g>
				<g id="shape3276-139" v:mID="3276" v:groupContext="shape" transform="translate(2.15827E-13,-13.8236)">
					<title>Tabelle.3276</title>
					<desc>C1</desc>
					<v:textBlock v:margins="rect(4,4,4,4)" v:tabSpace="42.5197"/>
					<v:textRect cx="14.2425" cy="300.65" width="28.49" height="16.7559"/>
					<rect x="0" y="292.272" width="28.485" height="16.7559" class="st1"/>
					<text x="9.04" y="303.65" class="st7" v:langID="2055"><v:paragraph v:horizAlign="1"/><v:tabList/>C1</text>				</g>
			</g>
			<g id="group3277-142" transform="translate(551.605,357.92) rotate(180)" v:mID="3277" v:groupContext="group">
				<title>Tabelle.3277</title>
				<g id="shape3278-143" v:mID="3278" v:groupContext="shape" transform="translate(44.4032,573.652) rotate(180)">
					<title>Gedrehtes Dreieck</title>
					<v:userDefs>
						<v:ud v:nameU="visVersion" v:val="VT0(15):26"/>
					</v:userDefs>
					<path d="M44.4 264.62 L0 286.83 L44.4 309.03 L44.4 264.62 Z" class="st6"/>
				</g>
				<g id="shape3279-145" v:mID="3279" v:groupContext="shape" transform="translate(2.15827E-13,-13.8236)">
					<title>Tabelle.3279</title>
					<desc>C4</desc>
					<v:textBlock v:margins="rect(4,4,4,4)" v:tabSpace="42.5197"/>
					<v:textRect cx="14.2425" cy="300.65" width="28.49" height="16.7559" transform="rotate(-180)"/>
					<rect x="0" y="292.272" width="28.485" height="16.7559" class="st1"/>
					<text x="-19.44" y="-297.65" transform="rotate(180)" class="st7" v:langID="2055"><v:paragraph v:horizAlign="1"/><v:tabList/>C<tspan
								class="st3" v:langID="1031">4</tspan></text>				</g>
			</g>
			<g id="shape3280-149" v:mID="3280" v:groupContext="shape" transform="translate(159.482,0)">
				<title>Rechteck.2859</title>
				<v:userDefs>
					<v:ud v:nameU="visVersion" v:val="VT0(15):26"/>
				</v:userDefs>
				<path d="M0 309.03 L847.56 309.03 L847.56 33.81 L0 33.81 L0 309.03 Z" class="st11"/>
			</g>
			<g id="shape3281-151" v:mID="3281" v:groupContext="shape" v:layerMember="0" transform="translate(482.801,-28.4673)">
				<title>Dynamischer Verbinder.2865</title>
				<path d="M0 301.99 L82.1 301.89" class="st4"/>
			</g>
			<g id="shape3282-156" v:mID="3282" v:groupContext="shape" v:layerMember="0" transform="translate(701.728,-29.7764)">
				<title>Dynamischer Verbinder.2866</title>
				<path d="M-3.52 301.94 L-3.88 301.94 L-88.54 301.94" class="st8"/>
			</g>
			<g id="shape3283-161" v:mID="3283" v:groupContext="shape" transform="translate(623.656,-224.948)">
				<title>Rechteck.2892</title>
				<desc>C3</desc>
				<v:userDefs>
					<v:ud v:nameU="visVersion" v:val="VT0(15):26"/>
				</v:userDefs>
				<v:textBlock v:margins="rect(4,4,4,4)" v:tabSpace="42.5197"/>
				<v:textRect cx="22.2016" cy="295.204" width="44.41" height="27.6473"/>
				<rect x="0" y="281.38" width="44.4032" height="27.6473" class="st6"/>
				<text x="17" y="298.2" class="st7" v:langID="2055"><v:paragraph v:horizAlign="1"/><v:tabList/>C<tspan class="st3"
							v:langID="1031">3</tspan></text>			</g>
			<g id="shape3284-165" v:mID="3284" v:groupContext="shape" v:layerMember="0" transform="translate(585.117,-231.668)">
				<title>Dynamischer Verbinder.2893</title>
				<path d="M0 301.96 L-29.63 301.93" class="st4"/>
			</g>
			<g id="shape3285-170" v:mID="3285" v:groupContext="shape" v:layerMember="0" transform="translate(701.309,-231.685)">
				<title>Dynamischer Verbinder.2894</title>
				<path d="M0 301.94 L-29.37 301.94" class="st4"/>
			</g>
			<g id="group3286-175" transform="translate(581.766,-230.36)" v:mID="3286" v:groupContext="group">
				<title>Tabelle.3286</title>
				<g id="shape3287-176" v:mID="3287" v:groupContext="shape" transform="translate(3.35118,-2.09448)">
					<title>Kreis.218</title>
					<v:userDefs>
						<v:ud v:nameU="visVersion" v:val="VT0(15):26"/>
					</v:userDefs>
					<path d="M0 302.74 A6.28347 6.28347 0 0 1 12.57 302.74 A6.28347 6.28347 0 0 1 0 302.74 Z" class="st6"/>
				</g>
				<g id="shape3288-178" v:mID="3288" v:groupContext="shape">
					<title>Tabelle.3288</title>
					<desc>4</desc>
					<v:textBlock v:margins="rect(4,4,4,4)" v:tabSpace="42.5197"/>
					<v:textRect cx="9.63465" cy="300.65" width="19.27" height="16.7559"/>
					<rect x="0" y="292.272" width="19.2693" height="16.7559" class="st9"/>
					<text x="7.61" y="303.05" class="st10" v:langID="2055"><v:paragraph v:horizAlign="1"/><v:tabList/>4</text>				</g>
			</g>
			<g id="shape3289-181" v:mID="3289" v:groupContext="shape" v:layerMember="0" transform="translate(623.656,-245.842)">
				<title>Dynamischer Verbinder.2898</title>
				<path d="M0 316.1 L-22.09 316.13" class="st4"/>
			</g>
			<g id="group3290-186" transform="translate(179.178,-24.4706)" v:mID="3290" v:groupContext="group">
				<title>Tabelle.3290</title>
				<g id="shape3291-187" v:mID="3291" v:groupContext="shape">
					<title>Ellipse</title>
					<v:userDefs>
						<v:ud v:nameU="visVersion" v:val="VT0(15):26"/>
					</v:userDefs>
					<path d="M0 298 A16.5464 11.031 0 0 1 33.09 298 A16.5464 11.031 0 1 1 0 298 Z" class="st12"/>
				</g>
				<g id="shape3292-189" v:mID="3292" v:groupContext="shape" transform="translate(2.30392,-2.65301)">
					<title>Tabelle.3292</title>
					<desc>C12</desc>
					<v:textBlock v:margins="rect(4,4,4,4)" v:tabSpace="42.5197"/>
					<v:textRect cx="14.2425" cy="300.65" width="28.49" height="16.7559"/>
					<rect x="0" y="292.272" width="28.485" height="16.7559" class="st1"/>
					<text x="6.51" y="303.65" class="st7" v:langID="2055"><v:paragraph v:horizAlign="1"/><v:tabList/>C<tspan
								class="st3" v:langID="1031">12</tspan></text>				</g>
			</g>
			<g id="group3293-193" transform="translate(179.178,-226.903)" v:mID="3293" v:groupContext="group">
				<title>Tabelle.3293</title>
				<g id="shape3294-194" v:mID="3294" v:groupContext="shape">
					<title>Ellipse</title>
					<v:userDefs>
						<v:ud v:nameU="visVersion" v:val="VT0(15):26"/>
					</v:userDefs>
					<path d="M0 298 A16.5464 11.031 0 0 1 33.09 298 A16.5464 11.031 0 1 1 0 298 Z" class="st12"/>
				</g>
				<g id="shape3295-196" v:mID="3295" v:groupContext="shape" transform="translate(2.30392,-2.65301)">
					<title>Tabelle.3295</title>
					<desc>C13</desc>
					<v:textBlock v:margins="rect(4,4,4,4)" v:tabSpace="42.5197"/>
					<v:textRect cx="14.2425" cy="300.65" width="28.49" height="16.7559"/>
					<rect x="0" y="292.272" width="28.485" height="16.7559" class="st1"/>
					<text x="6.51" y="303.65" class="st7" v:langID="2055"><v:paragraph v:horizAlign="1"/><v:tabList/>C<tspan
								class="st3" v:langID="1031">13</tspan></text>				</g>
			</g>
			<g id="shape3296-200" v:mID="3296" v:groupContext="shape" v:layerMember="0" transform="translate(422.899,-28.4673)">
				<title>Dynamischer Verbinder.2989</title>
				<path d="M0 301.99 L11.83 301.91" class="st4"/>
			</g>
			<g id="shape3297-205" v:mID="3297" v:groupContext="shape" v:layerMember="0" transform="translate(437.77,-237.934)">
				<title>Dynamischer Verbinder.2990</title>
				<path d="M0 309.03 L-169.85 309.03 L-169.85 391.26" class="st4"/>
			</g>
			<g id="group3298-210" transform="translate(955.523,-25.832)" v:mID="3298" v:groupContext="group">
				<title>Tabelle.3298</title>
				<g id="shape3299-211" v:mID="3299" v:groupContext="shape">
					<title>Ellipse</title>
					<v:userDefs>
						<v:ud v:nameU="visVersion" v:val="VT0(15):26"/>
					</v:userDefs>
					<path d="M0 298 A16.5464 11.031 0 0 1 33.09 298 A16.5464 11.031 0 1 1 0 298 Z" class="st12"/>
				</g>
				<g id="shape3300-213" v:mID="3300" v:groupContext="shape" transform="translate(2.30392,-2.65301)">
					<title>Tabelle.3300</title>
					<desc>C15</desc>
					<v:textBlock v:margins="rect(4,4,4,4)" v:tabSpace="42.5197"/>
					<v:textRect cx="14.2425" cy="300.65" width="28.49" height="16.7559"/>
					<rect x="0" y="292.272" width="28.485" height="16.7559" class="st1"/>
					<text x="6.51" y="303.65" class="st7" v:langID="2055"><v:paragraph v:horizAlign="1"/><v:tabList/>C<tspan
								class="st3" v:langID="1031">15</tspan></text>				</g>
			</g>
			<g id="group3301-217" transform="translate(955.523,-226.574)" v:mID="3301" v:groupContext="group">
				<title>Tabelle.3301</title>
				<g id="shape3302-218" v:mID="3302" v:groupContext="shape">
					<title>Ellipse</title>
					<v:userDefs>
						<v:ud v:nameU="visVersion" v:val="VT0(15):26"/>
					</v:userDefs>
					<path d="M0 298 A16.5464 11.031 0 0 1 33.09 298 A16.5464 11.031 0 1 1 0 298 Z" class="st12"/>
				</g>
				<g id="shape3303-220" v:mID="3303" v:groupContext="shape" transform="translate(2.30392,-2.65301)">
					<title>Tabelle.3303</title>
					<desc>C14</desc>
					<v:textBlock v:margins="rect(4,4,4,4)" v:tabSpace="42.5197"/>
					<v:textRect cx="14.2425" cy="300.65" width="28.49" height="16.7559"/>
					<rect x="0" y="292.272" width="28.485" height="16.7559" class="st1"/>
					<text x="6.51" y="303.65" class="st7" v:langID="2055"><v:paragraph v:horizAlign="1"/><v:tabList/>C<tspan
								class="st3" v:langID="1031">14</tspan></text>				</g>
			</g>
			<g id="shape3304-224" v:mID="3304" v:groupContext="shape" v:layerMember="0" transform="translate(745.921,-36.863)">
				<title>Dynamischer Verbinder.2997</title>
				<path d="M0 309.03 L157.31 309.03 L157.31 227.03" class="st4"/>
			</g>
			<g id="shape3305-229" v:mID="3305" v:groupContext="shape" v:layerMember="0" transform="translate(910.313,-150.384)">
				<title>Dynamischer Verbinder.2998</title>
				<path d="M-7.08 309.03 L-7.09 230.84" class="st4"/>
			</g>
			<g id="shape3306-234" v:mID="3306" v:groupContext="shape" transform="translate(139.923,-261.699)">
				<title>Tabelle.3306</title>
				<desc>System Boundary</desc>
				<v:textBlock v:margins="rect(4,4,4,4)" v:tabSpace="42.5197"/>
				<v:textRect cx="65.9764" cy="285.988" width="131.96" height="46.0787"/>
				<rect x="0" y="262.949" width="131.953" height="46.0787" class="st1"/>
				<text x="23.45" y="289.59" class="st2" v:langID="1031"><v:paragraph v:horizAlign="1"/><v:tabList/>System Boundary</text>			</g>
			<g id="shape3310-237" v:mID="3310" v:groupContext="shape" transform="translate(896.947,-122.737)">
				<title>Rechteck.3310</title>
				<desc>C10</desc>
				<v:userDefs>
					<v:ud v:nameU="visVersion" v:val="VT0(15):26"/>
				</v:userDefs>
				<v:textBlock v:margins="rect(4,4,4,4)" v:tabSpace="42.5197"/>
				<v:textRect cx="22.2016" cy="295.204" width="44.41" height="27.6473"/>
				<rect x="0" y="281.38" width="44.4032" height="27.6473" class="st6"/>
				<text x="14.47" y="298.2" class="st7" v:langID="2055"><v:paragraph v:horizAlign="1"/><v:tabList/>C<tspan
							class="st3" v:langID="1031">10</tspan></text>			</g>
			<g id="group3313-241" transform="translate(924.909,-28.485)" v:mID="3313" v:groupContext="group">
				<title>Tabelle.3313</title>
				<g id="shape3314-242" v:mID="3314" v:groupContext="shape" transform="translate(3.35118,-2.09448)">
					<title>Kreis.198</title>
					<v:userDefs>
						<v:ud v:nameU="visVersion" v:val="VT0(15):26"/>
					</v:userDefs>
					<path d="M0 302.74 A6.28347 6.28347 0 0 1 12.57 302.74 A6.28347 6.28347 0 0 1 -0 302.74 Z" class="st6"/>
				</g>
				<g id="shape3315-244" v:mID="3315" v:groupContext="shape">
					<title>Tabelle.3315</title>
					<desc>17</desc>
					<v:textBlock v:margins="rect(4,4,4,4)" v:tabSpace="42.5197"/>
					<v:textRect cx="9.63465" cy="300.65" width="19.27" height="16.7559"/>
					<rect x="0" y="292.272" width="19.2693" height="16.7559" class="st9"/>
					<text x="5.58" y="303.05" class="st10" v:langID="1031"><v:paragraph v:horizAlign="1"/><v:tabList/>17</text>				</g>
			</g>
			<g id="group3316-247" transform="translate(924.915,-229.227)" v:mID="3316" v:groupContext="group">
				<title>Tabelle.3316</title>
				<g id="shape3317-248" v:mID="3317" v:groupContext="shape" transform="translate(3.35118,-2.09448)">
					<title>Kreis.198</title>
					<v:userDefs>
						<v:ud v:nameU="visVersion" v:val="VT0(15):26"/>
					</v:userDefs>
					<path d="M0 302.74 A6.28347 6.28347 0 0 1 12.57 302.74 A6.28347 6.28347 0 0 1 -0 302.74 Z" class="st6"/>
				</g>
				<g id="shape3318-250" v:mID="3318" v:groupContext="shape">
					<title>Tabelle.3318</title>
					<desc>16</desc>
					<v:textBlock v:margins="rect(4,4,4,4)" v:tabSpace="42.5197"/>
					<v:textRect cx="9.63465" cy="300.65" width="19.27" height="16.7559"/>
					<rect x="0" y="292.272" width="19.2693" height="16.7559" class="st9"/>
					<text x="5.58" y="303.05" class="st10" v:langID="1031"><v:paragraph v:horizAlign="1"/><v:tabList/>16</text>				</g>
			</g>
			<g id="shape3320-253" v:mID="3320" v:groupContext="shape" v:layerMember="0" transform="translate(927.512,-231.321)">
				<title>Dynamischer Verbinder.3320</title>
				<path d="M7.04 309.03 L7.13 386.08" class="st4"/>
			</g>
			<g id="shape3321-258" v:mID="3321" v:groupContext="shape" v:layerMember="0" transform="translate(941.682,-122.737)">
				<title>Dynamischer Verbinder.3321</title>
				<path d="M-7.03 309.03 L-7.13 384.74" class="st4"/>
			</g>
			<g id="shape3322-263" v:mID="3322" v:groupContext="shape" v:layerMember="0" transform="translate(955.523,-244.691)">
				<title>Dynamischer Verbinder.3322</title>
				<path d="M0 316.11 L-10.81 316.11" class="st4"/>
			</g>
			<g id="shape3324-268" v:mID="3324" v:groupContext="shape" v:layerMember="0" transform="translate(940.827,-29.7764)">
				<title>Dynamischer Verbinder.3324</title>
				<path d="M0 301.94 L10.82 301.94" class="st4"/>
			</g>
			<g id="group3325-273" transform="translate(880.07,357.92) rotate(180)" v:mID="3325" v:groupContext="group">
				<title>Tabelle.3325</title>
				<g id="shape3326-274" v:mID="3326" v:groupContext="shape" transform="translate(44.4032,573.652) rotate(180)">
					<title>Gedrehtes Dreieck</title>
					<v:userDefs>
						<v:ud v:nameU="visVersion" v:val="VT0(15):26"/>
					</v:userDefs>
					<path d="M44.4 264.62 L0 286.83 L44.4 309.03 L44.4 264.62 Z" class="st6"/>
				</g>
				<g id="shape3327-276" v:mID="3327" v:groupContext="shape" transform="translate(2.15827E-13,-13.8236)">
					<title>Tabelle.3327</title>
					<desc>C11</desc>
					<v:textBlock v:margins="rect(4,4,4,4)" v:tabSpace="42.5197"/>
					<v:textRect cx="14.2425" cy="300.65" width="28.49" height="16.7559" transform="rotate(-180)"/>
					<rect x="0" y="292.272" width="28.485" height="16.7559" class="st1"/>
					<text x="-21.98" y="-297.65" transform="rotate(180)" class="st7" v:langID="2055"><v:paragraph v:horizAlign="1"/><v:tabList/>C<tspan
								class="st3" v:langID="1031">11</tspan></text>				</g>
			</g>
			<g id="group3328-280" transform="translate(810.252,-229.556)" v:mID="3328" v:groupContext="group">
				<title>Tabelle.3328</title>
				<g id="shape3329-281" v:mID="3329" v:groupContext="shape" transform="translate(3.35118,-2.09448)">
					<title>Kreis.198</title>
					<v:userDefs>
						<v:ud v:nameU="visVersion" v:val="VT0(15):26"/>
					</v:userDefs>
					<path d="M0 302.74 A6.28347 6.28347 0 0 1 12.57 302.74 A6.28347 6.28347 0 0 1 -0 302.74 Z" class="st6"/>
				</g>
				<g id="shape3330-283" v:mID="3330" v:groupContext="shape">
					<title>Tabelle.3330</title>
					<desc>10</desc>
					<v:textBlock v:margins="rect(4,4,4,4)" v:tabSpace="42.5197"/>
					<v:textRect cx="9.63465" cy="300.65" width="19.27" height="16.7559"/>
					<rect x="0" y="292.272" width="19.2693" height="16.7559" class="st9"/>
					<text x="5.58" y="303.05" class="st10" v:langID="1031"><v:paragraph v:horizAlign="1"/><v:tabList/>10</text>				</g>
			</g>
			<g id="group3331-286" transform="translate(801.53,357.92) rotate(180)" v:mID="3331" v:groupContext="group">
				<title>Tabelle.3331</title>
				<g id="shape3332-287" v:mID="3332" v:groupContext="shape" transform="translate(44.4032,573.652) rotate(180)">
					<title>Gedrehtes Dreieck</title>
					<v:userDefs>
						<v:ud v:nameU="visVersion" v:val="VT0(15):26"/>
					</v:userDefs>
					<path d="M44.4 264.62 L0 286.83 L44.4 309.03 L44.4 264.62 Z" class="st6"/>
				</g>
				<g id="shape3333-289" v:mID="3333" v:groupContext="shape" transform="translate(2.15827E-13,-13.8236)">
					<title>Tabelle.3333</title>
					<desc>C9</desc>
					<v:textBlock v:margins="rect(4,4,4,4)" v:tabSpace="42.5197"/>
					<v:textRect cx="14.2425" cy="300.65" width="28.49" height="16.7559" transform="rotate(-180)"/>
					<rect x="0" y="292.272" width="28.485" height="16.7559" class="st1"/>
					<text x="-19.44" y="-297.65" transform="rotate(180)" class="st7" v:langID="2055"><v:paragraph v:horizAlign="1"/><v:tabList/>C<tspan
								class="st3" v:langID="1031">9</tspan></text>				</g>
			</g>
			<g id="shape3334-293" v:mID="3334" v:groupContext="shape" v:layerMember="0" transform="translate(745.921,-36.863)">
				<title>Dynamischer Verbinder.3334</title>
				<path d="M0 309.03 L112.87 309.03 L112.87 123.4" class="st4"/>
			</g>
			<g id="shape3335-298" v:mID="3335" v:groupContext="shape" v:layerMember="0" transform="translate(758.506,-230.847)">
				<title>Dynamischer Verbinder.3335</title>
				<path d="M-1.38 301.94 L-8.91 301.94" class="st4"/>
			</g>
			<g id="shape3337-303" v:mID="3337" v:groupContext="shape" v:layerMember="0" transform="translate(838.005,-230.847)">
				<title>Dynamischer Verbinder.3337</title>
				<path d="M-2.34 301.94 L-7.95 301.94" class="st4"/>
			</g>
			<g id="group3338-308" transform="translate(378.496,-13.3)" v:mID="3338" v:groupContext="group">
				<title>Tabelle.3338</title>
				<g id="shape3339-309" v:mID="3339" v:groupContext="shape" transform="translate(44.4032,573.652) rotate(180)">
					<title>Gedrehtes Dreieck</title>
					<v:userDefs>
						<v:ud v:nameU="visVersion" v:val="VT0(15):26"/>
					</v:userDefs>
					<path d="M44.4 264.62 L0 286.83 L44.4 309.03 L44.4 264.62 Z" class="st6"/>
				</g>
				<g id="shape3340-311" v:mID="3340" v:groupContext="shape" transform="translate(28.485,587.476) rotate(180)">
					<title>Tabelle.3340</title>
					<desc>C6</desc>
					<v:textBlock v:margins="rect(4,4,4,4)" v:tabSpace="42.5197"/>
					<v:textRect cx="14.2425" cy="300.65" width="28.49" height="16.7559" transform="rotate(180)"/>
					<rect x="0" y="292.272" width="28.485" height="16.7559" class="st1"/>
					<text x="-19.44" y="-297.65" transform="rotate(180)" class="st7" v:langID="1031"><v:paragraph v:horizAlign="1"/><v:tabList/>C6</text>				</g>
			</g>
			<g id="group3341-314" transform="translate(290.939,-12.0328)" v:mID="3341" v:groupContext="group">
				<title>Tabelle.3341</title>
				<g id="shape3342-315" v:mID="3342" v:groupContext="shape" transform="translate(44.4032,573.652) rotate(180)">
					<title>Gedrehtes Dreieck</title>
					<v:userDefs>
						<v:ud v:nameU="visVersion" v:val="VT0(15):26"/>
					</v:userDefs>
					<path d="M44.4 264.62 L0 286.83 L44.4 309.03 L44.4 264.62 Z" class="st6"/>
				</g>
				<g id="shape3343-317" v:mID="3343" v:groupContext="shape" transform="translate(28.485,587.476) rotate(180)">
					<title>Tabelle.3343</title>
					<desc>C8</desc>
					<v:textBlock v:margins="rect(4,4,4,4)" v:tabSpace="42.5197"/>
					<v:textRect cx="14.2425" cy="300.65" width="28.49" height="16.7559" transform="rotate(180)"/>
					<rect x="0" y="292.272" width="28.485" height="16.7559" class="st1"/>
					<text x="-19.44" y="-297.65" transform="rotate(180)" class="st7" v:langID="1031"><v:paragraph v:horizAlign="1"/><v:tabList/>C8</text>				</g>
			</g>
			<g id="shape3344-320" v:mID="3344" v:groupContext="shape" transform="translate(230.216,-124.171)">
				<title>Rechteck.3344</title>
				<desc>C7</desc>
				<v:userDefs>
					<v:ud v:nameU="visVersion" v:val="VT0(15):26"/>
				</v:userDefs>
				<v:textBlock v:margins="rect(4,4,4,4)" v:tabSpace="42.5197"/>
				<v:textRect cx="22.2016" cy="295.204" width="44.41" height="27.6473"/>
				<rect x="0" y="281.38" width="44.4032" height="27.6473" class="st6"/>
				<text x="17" y="298.2" class="st7" v:langID="2055"><v:paragraph v:horizAlign="1"/><v:tabList/>C<tspan class="st3"
							v:langID="1031">7</tspan></text>			</g>
			<g id="shape3345-324" v:mID="3345" v:groupContext="shape" v:layerMember="0" transform="translate(260.86,-124.171)">
				<title>Dynamischer Verbinder.3345</title>
				<path d="M7.06 309.03 L7.11 388.8" class="st4"/>
			</g>
			<g id="group3346-329" transform="translate(344.394,-25.9824)" v:mID="3346" v:groupContext="group">
				<title>Tabelle.3346</title>
				<g id="shape3347-330" v:mID="3347" v:groupContext="shape" transform="translate(3.35118,-2.19923)">
					<title>Kreis.222</title>
					<v:userDefs>
						<v:ud v:nameU="visVersion" v:val="VT0(15):26"/>
					</v:userDefs>
					<path d="M0 302.74 A6.28347 6.28347 0 1 1 12.57 302.74 A6.28347 6.28347 0 1 1 0 302.74 Z" class="st6"/>
				</g>
				<g id="shape3348-332" v:mID="3348" v:groupContext="shape">
					<title>Tabelle.3348</title>
					<desc>6</desc>
					<v:textBlock v:margins="rect(4,4,4,4)" v:tabSpace="42.5197"/>
					<v:textRect cx="9.63465" cy="300.65" width="19.27" height="16.7559"/>
					<rect x="0" y="292.272" width="19.2693" height="16.7559" class="st9"/>
					<text x="7.61" y="303.05" class="st10" v:langID="1031"><v:paragraph v:horizAlign="1"/><v:tabList/>6</text>				</g>
			</g>
			<g id="shape3349-335" v:mID="3349" v:groupContext="shape" v:layerMember="0" transform="translate(360.312,-27.4779)">
				<title>Dynamischer Verbinder.3349</title>
				<path d="M0 302.04 L14.3 301.88" class="st4"/>
			</g>
			<g id="shape3350-340" v:mID="3350" v:groupContext="shape" v:layerMember="0" transform="translate(334.457,-27.2631)">
				<title>Dynamischer Verbinder.3350</title>
				<path d="M0.89 302.06 L9.41 301.9" class="st4"/>
			</g>
			<g id="shape3351-345" v:mID="3351" v:groupContext="shape" v:layerMember="0" transform="translate(437.77,-237.934)">
				<title>Dynamischer Verbinder.3351</title>
				<path d="M0 309.03 L-125.02 309.03 L-125.02 497.55" class="st4"/>
			</g>
			<g id="group3352-350" transform="translate(226.383,-27.1236)" v:mID="3352" v:groupContext="group">
				<title>Tabelle.3352</title>
				<g id="shape3353-351" v:mID="3353" v:groupContext="shape" transform="translate(3.35118,-2.19923)">
					<title>Kreis.222</title>
					<v:userDefs>
						<v:ud v:nameU="visVersion" v:val="VT0(15):26"/>
					</v:userDefs>
					<path d="M0 302.74 A6.28347 6.28347 0 1 1 12.57 302.74 A6.28347 6.28347 0 1 1 0 302.74 Z" class="st6"/>
				</g>
				<g id="shape3354-353" v:mID="3354" v:groupContext="shape">
					<title>Tabelle.3354</title>
					<desc>14</desc>
					<v:textBlock v:margins="rect(4,4,4,4)" v:tabSpace="42.5197"/>
					<v:textRect cx="9.63465" cy="300.65" width="19.27" height="16.7559"/>
					<rect x="0" y="292.272" width="19.2693" height="16.7559" class="st9"/>
					<text x="5.58" y="303.05" class="st10" v:langID="1031"><v:paragraph v:horizAlign="1"/><v:tabList/>14</text>				</g>
			</g>
			<g id="group3355-356" transform="translate(226.383,-229.556)" v:mID="3355" v:groupContext="group">
				<title>Tabelle.3355</title>
				<g id="shape3356-357" v:mID="3356" v:groupContext="shape" transform="translate(3.35118,-2.19923)">
					<title>Kreis.222</title>
					<v:userDefs>
						<v:ud v:nameU="visVersion" v:val="VT0(15):26"/>
					</v:userDefs>
					<path d="M0 302.74 A6.28347 6.28347 0 1 1 12.57 302.74 A6.28347 6.28347 0 1 1 0 302.74 Z" class="st6"/>
				</g>
				<g id="shape3357-359" v:mID="3357" v:groupContext="shape">
					<title>Tabelle.3357</title>
					<desc>15</desc>
					<v:textBlock v:margins="rect(4,4,4,4)" v:tabSpace="42.5197"/>
					<v:textRect cx="9.63465" cy="300.65" width="19.27" height="16.7559"/>
					<rect x="0" y="292.272" width="19.2693" height="16.7559" class="st9"/>
					<text x="5.58" y="303.05" class="st10" v:langID="1031"><v:paragraph v:horizAlign="1"/><v:tabList/>15</text>				</g>
			</g>
			<g id="shape3358-362" v:mID="3358" v:groupContext="shape" v:layerMember="0" transform="translate(212.271,-230.9)">
				<title>Dynamischer Verbinder.3358</title>
				<path d="M3.52 301.97 L3.88 301.97 L17.46 301.89" class="st8"/>
			</g>
			<g id="shape3359-367" v:mID="3359" v:groupContext="shape" v:layerMember="0" transform="translate(229.172,-231.755)">
				<title>Dynamischer Verbinder.3359</title>
				<path d="M6.87 312.55 L6.87 312.91 L7.33 388.96" class="st8"/>
			</g>
			<g id="shape3360-372" v:mID="3360" v:groupContext="shape" v:layerMember="0" transform="translate(243.345,-124.171)">
				<title>Dynamischer Verbinder.3360</title>
				<path d="M-6.87 312.55 L-6.87 312.91 L-7.33 391.31" class="st8"/>
			</g>
			<g id="shape3361-377" v:mID="3361" v:groupContext="shape" v:layerMember="0" transform="translate(229.734,-42.6406)">
				<title>Dynamischer Verbinder.3361</title>
				<path d="M-3.52 316.08 L-3.88 316.09 L-17.46 316.17" class="st8"/>
			</g>
			<g id="group3362-382" transform="translate(258.341,-25.8564)" v:mID="3362" v:groupContext="group">
				<title>Tabelle.3362</title>
				<g id="shape3363-383" v:mID="3363" v:groupContext="shape" transform="translate(3.35118,-2.09448)">
					<title>Kreis.224</title>
					<v:userDefs>
						<v:ud v:nameU="visVersion" v:val="VT0(15):26"/>
					</v:userDefs>
					<path d="M0 302.74 A6.28347 6.28347 0 0 1 12.57 302.74 A6.28347 6.28347 0 0 1 0 302.74 Z" class="st6"/>
				</g>
				<g id="shape3364-385" v:mID="3364" v:groupContext="shape">
					<title>Tabelle.3364</title>
					<desc>9</desc>
					<v:textBlock v:margins="rect(4,4,4,4)" v:tabSpace="42.5197"/>
					<v:textRect cx="9.63465" cy="300.65" width="19.27" height="16.7559"/>
					<rect x="0" y="292.272" width="19.2693" height="16.7559" class="st9"/>
					<text x="7.61" y="303.05" class="st10" v:langID="1031"><v:paragraph v:horizAlign="1"/><v:tabList/>9</text>				</g>
			</g>
			<g id="shape3366-388" v:mID="3366" v:groupContext="shape" v:layerMember="0" transform="translate(274.259,-27.1478)">
				<title>Dynamischer Verbinder.3366</title>
				<path d="M0 301.94 L12.8 301.94" class="st4"/>
			</g>
			<g id="shape3367-393" v:mID="3367" v:groupContext="shape" v:layerMember="0" transform="translate(814.653,-244.935)">
				<title>Dynamischer Verbinder.3367</title>
				<path d="M-1.05 316.03 L-9.24 316.15" class="st4"/>
			</g>
			<g id="group3368-398" transform="translate(893.588,-230.36)" v:mID="3368" v:groupContext="group">
				<title>Tabelle.3368</title>
				<g id="shape3369-399" v:mID="3369" v:groupContext="shape" transform="translate(3.35118,-2.09448)">
					<title>Kreis.198</title>
					<v:userDefs>
						<v:ud v:nameU="visVersion" v:val="VT0(15):26"/>
					</v:userDefs>
					<path d="M0 302.74 A6.28347 6.28347 0 0 1 12.57 302.74 A6.28347 6.28347 0 0 1 -0 302.74 Z" class="st6"/>
				</g>
				<g id="shape3370-401" v:mID="3370" v:groupContext="shape">
					<title>Tabelle.3370</title>
					<desc>13</desc>
					<v:textBlock v:margins="rect(4,4,4,4)" v:tabSpace="42.5197"/>
					<v:textRect cx="9.63465" cy="300.65" width="19.27" height="16.7559"/>
					<rect x="0" y="292.272" width="19.2693" height="16.7559" class="st9"/>
					<text x="5.58" y="303.05" class="st10" v:langID="1031"><v:paragraph v:horizAlign="1"/><v:tabList/>13</text>				</g>
			</g>
			<g id="shape3371-404" v:mID="3371" v:groupContext="shape" v:layerMember="0" transform="translate(896.939,-231.668)">
				<title>Dynamischer Verbinder.3371</title>
				<path d="M0 301.96 L-12.99 301.93" class="st4"/>
			</g>
			<g id="group3392-409" transform="translate(1046.61,-203.593)" v:mID="3392" v:groupContext="group">
				<title>Tabelle.3392</title>
				<g id="shape3393-410" v:mID="3393" v:groupContext="shape" transform="translate(44.4032,573.652) rotate(180)">
					<title>Gedrehtes Dreieck</title>
					<v:userDefs>
						<v:ud v:nameU="visVersion" v:val="VT0(15):26"/>
					</v:userDefs>
					<path d="M44.4 264.62 L0 286.83 L44.4 309.03 L44.4 264.62 Z" class="st6"/>
				</g>
			</g>
			<g id="shape3394-412" v:mID="3394" v:groupContext="shape" transform="translate(1046.61,-154.041)">
				<title>Rechteck.3394</title>
				<v:userDefs>
					<v:ud v:nameU="visVersion" v:val="VT0(15):26"/>
				</v:userDefs>
				<rect x="0" y="281.38" width="44.4032" height="27.6473" class="st6"/>
			</g>
			<g id="group3395-414" transform="translate(1046.61,-110.074)" v:mID="3395" v:groupContext="group">
				<title>Tabelle.3395</title>
				<g id="shape3396-415" v:mID="3396" v:groupContext="shape">
					<title>Ellipse</title>
					<v:userDefs>
						<v:ud v:nameU="visVersion" v:val="VT0(15):26"/>
					</v:userDefs>
					<path d="M0 298 A16.5464 11.031 0 0 1 33.09 298 A16.5464 11.031 0 1 1 0 298 Z" class="st12"/>
				</g>
			</g>
			<g id="group3397-417" transform="translate(1046.61,-259.301)" v:mID="3397" v:groupContext="group">
				<title>Tabelle.3397</title>
				<g id="shape3398-418" v:mID="3398" v:groupContext="shape" transform="translate(3.35118,-2.19923)">
					<title>Kreis.222</title>
					<v:userDefs>
						<v:ud v:nameU="visVersion" v:val="VT0(15):26"/>
					</v:userDefs>
					<path d="M0 302.74 A6.28347 6.28347 0 1 1 12.57 302.74 A6.28347 6.28347 0 1 1 0 302.74 Z" class="st6"/>
				</g>
			</g>
			<g id="shape3399-420" v:mID="3399" v:groupContext="shape" transform="translate(1104.1,-203.641)">
				<title>Tabelle.3399</title>
				<desc>Pressure Based Component</desc>
				<v:textBlock v:margins="rect(4,4,4,4)" v:tabSpace="42.5197"/>
				<v:textRect cx="65.9764" cy="285.988" width="131.96" height="46.0787"/>
				<rect x="0" y="262.949" width="131.953" height="46.0787" class="st1"/>
				<text x="4" y="282.39" class="st2" v:langID="1031"><v:paragraph/><v:tabList/>Pressure Based <tspan x="4" dy="1.2em"
							class="st3">Component</tspan></text>			</g>
			<g id="shape3400-424" v:mID="3400" v:groupContext="shape" transform="translate(1104.74,-145.47)">
				<title>Tabelle.3400</title>
				<desc>Mass Flow Based Component</desc>
				<v:textBlock v:margins="rect(4,4,4,4)" v:tabSpace="42.5197"/>
				<v:textRect cx="49.2874" cy="285.988" width="98.58" height="46.0787"/>
				<rect x="0" y="262.949" width="98.5748" height="46.0787" class="st1"/>
				<text x="4" y="282.39" class="st2" v:langID="1031"><v:paragraph/><v:tabList/>Mass Flow Based <tspan x="4"
							dy="1.2em" class="st3">Component</tspan></text>			</g>
			<g id="shape3401-428" v:mID="3401" v:groupContext="shape" transform="translate(1074.98,-98.0655)">
				<title>Tabelle.3401</title>
				<desc>Source / Sink</desc>
				<v:textBlock v:margins="rect(4,4,4,4)" v:tabSpace="42.5197"/>
				<v:textRect cx="65.9764" cy="285.988" width="131.96" height="46.0787"/>
				<rect x="0" y="262.949" width="131.953" height="46.0787" class="st1"/>
				<text x="34.24" y="289.59" class="st2" v:langID="1031"><v:paragraph v:horizAlign="1"/><v:tabList/>Source / Sink</text>			</g>
			<g id="shape3402-431" v:mID="3402" v:groupContext="shape" transform="translate(1103.05,-244.639)">
				<title>Tabelle.3402</title>
				<desc>Junction</desc>
				<v:textBlock v:margins="rect(4,4,4,4)" v:tabSpace="42.5197"/>
				<v:textRect cx="33.1228" cy="285.988" width="66.25" height="46.0787"/>
				<rect x="0" y="262.949" width="66.2457" height="46.0787" class="st1"/>
				<text x="4" y="289.59" class="st2" v:langID="1031"><v:paragraph/><v:tabList/>Junction</text>			</g>
		</g>
	</g>
</svg>
